<svg xmlns="http://www.w3.org/2000/svg" width="1536" height="1024">
<path style="fill:#080808; stroke:none;" d="M0 0L0 414C117.09 414 234.003 415.605 351 416.996C455.3 418.236 559.692 417 664 417L664 0L0 0z"/>
<path style="fill:#f88a0e; stroke:none;" d="M664 0L664 417C560.025 417 455.966 418.232 352 416.996C234.669 415.601 117.424 414 0 414L0 611C62.0066 611 124.072 612 186 612C235.284 612 284.733 610.807 334 612.015C349.285 612.389 364.712 613.814 380 613.996C474.636 615.122 569.356 614 664 614L664 1024L869 1024L868 968L869 614C964.977 614 1061.03 615.138 1157 613.996C1180.93 613.711 1205.07 612.601 1229 612.015C1275.6 610.873 1322.38 612 1369 612C1424.67 612 1480.29 611 1536 611L1536 414C1430.93 414 1326 415.747 1221 416.996C1181.61 417.465 1142.37 416 1103 416C1025.1 416 946.99 417 869 417L869 0L664 0z"/>
<path style="fill:#080808; stroke:none;" d="M869 0L869 417C947.323 417 1025.76 416 1104 416C1143.37 416 1182.61 417.465 1222 416.996C1326.67 415.751 1431.26 414 1536 414L1536 0L869 0z"/>
<path style="fill:#f88a0e; stroke:none;" d="M310 259L266 259L266 285L310 286C309.424 291.627 306.398 299.321 299.999 300.393C294.253 301.355 288.901 297.062 285.179 304.044C281.369 311.19 287.368 319.948 295 320.685C299.272 321.098 303.332 318.854 307 317C307 321.528 306.375 326.607 307.638 331C310.098 339.559 317.922 346.871 324 353C330.77 348.13 338.207 339.228 340.387 331C341.564 326.558 341 321.558 341 317C344.133 318.64 347.325 320.804 351 320.71C358.539 320.517 366.823 312.851 362.82 305.015C358.946 297.431 353.301 300.994 347.004 299.527C341.053 298.141 338.552 291.389 338 286L382 286L382 259L337 259C337 237.99 339.245 216.993 346.1 197C351.75 180.523 361.189 165.575 363.7 148C365.785 133.403 362.111 118.07 355.741 105C350.389 94.0203 342.737 84.1461 334.714 75C332.317 72.2676 328.057 66.2068 324 66.2068C320.202 66.2068 316.406 71.5695 314.004 74C305.226 82.8797 297.351 93.817 291.759 105C286.764 114.991 283.008 126.738 283.008 138C283.008 164.286 298.892 189.239 306.23 214C310.516 228.461 310 244.096 310 259M1196 259L1151 259L1151 286L1196 286C1195.13 291.811 1192.49 298.803 1186 300.243C1179.67 301.646 1173.42 296.379 1169.86 305.015C1166.72 312.634 1174.59 320.477 1182 320.711C1186.23 320.844 1189.81 318.461 1193 316C1190.25 327.545 1194.7 336.34 1202.13 345C1203.94 347.107 1206.79 351.793 1209.95 351.793C1213.08 351.793 1215.71 347.124 1217.4 345C1224.43 336.179 1228.72 327.426 1226 316C1230.26 318.994 1234.68 320.734 1240 319.772C1246.57 318.583 1250.79 311.357 1248.26 305.04C1245.03 296.972 1238.1 301.108 1232.01 299.552C1225.91 297.991 1223.55 290.521 1223 285L1268 285L1268 259L1223 259C1223 240.045 1224.11 221.197 1230.09 203C1239.03 175.802 1255.23 151.919 1248.71 122C1247.34 115.707 1244.21 109.659 1241.22 104C1235.55 93.2595 1228.36 82.7857 1219.96 74C1217.62 71.549 1213.77 66.2068 1210 66.2068C1205.99 66.2068 1202.4 72.4177 1199.96 75C1191.38 84.0867 1184.35 93.8134 1178.75 105C1169.82 122.856 1167.57 141.671 1173.21 161C1177.32 175.124 1184.91 187.959 1189.23 202C1194.97 220.696 1196 239.621 1196 259M245 259C244.58 249.21 243.416 241.152 250.329 233.015C251.962 231.093 253.826 229.31 256.001 228.009C271.58 218.691 283.891 240.058 284 253L300 253C300 239.5 299.032 226.856 294.453 214C291.159 204.753 286.319 195.398 279.816 188C275.329 182.896 270.272 178.206 264 175.44C241.555 165.542 215.447 179.958 208.633 203C203.875 219.091 210.16 238.063 223.001 248.532C229.314 253.68 237.098 257.171 245 259M347 253L364 253C364.039 239.353 374.806 219.864 390.999 228C393.111 229.061 395.048 230.464 396.671 232.185C403.498 239.423 403 248.777 403 258C409.235 257.49 414.741 255.288 420 251.91C435.808 241.756 443.891 221.24 438.699 203C432.319 180.587 406.027 165.478 384 175.044C378.351 177.497 373.265 181.417 369.184 186.004C362.035 194.04 357.395 204.174 353.285 214C348.184 226.192 347 239.935 347 253M1131 259C1130.45 252.033 1129.4 245.685 1132.36 239C1133.51 236.408 1135.15 234.088 1137.1 232.043C1138.82 230.25 1140.77 228.574 1143 227.457C1159.02 219.443 1168.46 240.91 1170 253L1186 253C1186 239.375 1185.42 225.882 1180.39 213C1176.7 203.579 1171.69 193.518 1164.83 186.015C1160.96 181.785 1156.12 178.364 1151 175.81C1128.56 164.626 1102.06 179.216 1094.6 202C1089.07 218.881 1095.82 239.286 1110 249.711C1116.35 254.377 1123.29 257.484 1131 259M1232 253L1249 253C1249.65 238.012 1263.86 216.684 1279.96 230.34C1282.18 232.224 1284.06 234.534 1285.6 237C1290.05 244.138 1288.34 251.18 1288 259C1295.16 257.768 1302.18 254.572 1308 250.239C1322 239.821 1329.47 221.111 1324.84 204C1318.49 180.512 1290.68 163.968 1268 176.312C1262.85 179.116 1258.09 182.612 1254.18 187.004C1247.34 194.698 1242.53 204.427 1238.95 214C1234.4 226.168 1232.01 240.004 1232 253z"/>
<path style="fill:#080808; stroke:none;" d="M0 611L0 1024L664 1024L664 614C569.689 614 475.303 615.118 381 613.996C365.712 613.814 350.285 612.389 335 612.015C285.733 610.807 236.284 612 187 612C124.739 612 62.3398 611 0 611M869 614L868 967L869 1024L1536 1024L1536 611C1479.95 611 1424 612 1368 612C1321.38 612 1274.6 610.873 1228 612.015C1204.07 612.601 1179.93 613.711 1156 613.996C1060.36 615.134 964.644 614 869 614z"/>
<path style="fill:#f88a0e; stroke:none;" d="M310 858L266 858L266 885L310 885C309.852 891.289 307.306 898.802 300 899.728C294.224 900.461 288.914 896.038 285.179 903.044C281.465 910.01 286.818 918.008 294 919.427C298.599 920.337 303.111 918.189 307 916C307 921.622 306.332 927.676 308.482 933C311.55 940.596 318.406 945.478 323 952C335.702 946.027 343.495 929.485 341 916C344.391 917.97 347.925 920.054 352 919.772C359.533 919.25 366.733 911.618 362.821 904.015C358.669 895.945 353.405 900.937 347.004 899.523C340.637 898.117 338.492 890.605 338 885L382 885L382 858L337 858C337 840.736 338.309 822.594 343.508 806C348.434 790.274 357.19 775.927 361.511 760C366.601 741.238 363.972 722.201 355.244 705C349.757 694.185 342.163 683.87 333.91 675C331.507 672.417 327.839 667.381 324 667.117C319.744 666.825 316.283 672.271 313.834 675.001C305.324 684.485 297.833 694.487 292.258 706C288.599 713.558 285.495 721.639 284.3 730C280.416 757.184 296.318 781.146 304.254 806C309.624 822.817 310 840.547 310 858M1196 858L1151 858L1151 885L1196 885C1194.78 890.838 1192.62 897.926 1186 899.551C1180.01 901.021 1174.15 895.603 1170.18 903.044C1166.53 909.894 1171.79 918.237 1179 919.566C1183.52 920.4 1188.27 918.295 1192 916C1192 930.154 1196.97 945.453 1211 952C1219.84 940.697 1229.7 931.559 1226 916C1229.48 917.988 1232.82 920.092 1237 919.775C1244.46 919.208 1252.49 911.745 1248.54 904.015C1243.97 895.06 1237.85 901.796 1231.04 899.243C1225.41 897.134 1224.07 890.175 1223 885L1268 885L1268 858L1223 858C1223 840.65 1223.57 823.792 1228.57 807C1234.77 786.196 1247.2 766.824 1249.82 745C1251.43 731.538 1247.59 717.993 1241.74 706C1236.23 694.698 1228.83 683.942 1220 675C1217.59 672.569 1213.8 667.207 1210 667.207C1206.23 667.207 1202.39 672.547 1200.04 675C1191.54 683.888 1184.32 694.033 1178.76 705C1169.22 723.797 1167.47 743.748 1173.71 764C1177.92 777.685 1185.16 790.276 1189.23 804C1194.46 821.623 1196 839.737 1196 858M245 858C244.799 848.261 243.272 840.114 250.329 832.043C265.217 815.016 283.279 835.474 284 852L301 852C300.734 839.132 298.778 824.992 294 813C290.142 803.317 285.647 793.919 278.7 786.015C261.12 766.011 229.972 768.795 214.634 790C205.564 802.54 204.822 819.004 210.88 833C213.504 839.063 217.845 844.256 223.001 848.331C229.655 853.591 236.747 856.394 245 858M347 852L364 852C364.118 838.795 375.513 819.041 390.999 827.558C393.137 828.734 395.038 830.288 396.674 832.093C403.677 839.819 403 848.278 403 858C410.159 856.783 417.164 853.733 423 849.39C433.963 841.233 442.256 825.99 440.826 812C437.96 783.974 407.171 762.536 381 777.04C375.763 779.943 371.735 783.398 367.924 788.001C361.572 795.67 356.799 804.609 353.505 814C349.191 826.3 347 838.957 347 852M1130 858C1130 848.493 1129.26 839.58 1136.19 832.043C1151.36 815.544 1168.95 835.188 1169 852L1186 852C1186 838.539 1184.19 825.669 1179.42 813C1175.96 803.786 1171.66 794.317 1164.91 787.001C1160.05 781.732 1154.55 777.714 1148 774.796C1127.11 765.489 1101.44 780.559 1094.41 801C1088.09 819.379 1096.41 841.337 1113 851.37C1118.07 854.438 1124.08 857.393 1130 858M1232 852L1249 852C1249.46 841.479 1256.26 825.115 1269 825.279C1285.25 825.488 1290.36 845.313 1288 858C1294.75 857.411 1301.37 854.644 1307 850.895C1312.62 847.154 1317.43 841.905 1320.69 836C1324.48 829.12 1327.42 820.953 1326.91 813C1324.56 776.36 1277.82 758.155 1253.46 787.015C1246.99 794.69 1242.45 803.639 1238.95 813C1234.35 825.3 1232 838.865 1232 852z"/>
</svg>
